<?xml version="1.0" encoding="utf-8"?>
<!-- Generator: Adobe Illustrator 18.0.0, SVG Export Plug-In . SVG Version: 6.00 Build 0)  -->
<!DOCTYPE svg PUBLIC "-//W3C//DTD SVG 1.1//EN" "http://www.w3.org/Graphics/SVG/1.1/DTD/svg11.dtd">
<svg version="1.1" id="Layer_1" xmlns="http://www.w3.org/2000/svg" xmlns:xlink="http://www.w3.org/1999/xlink" x="0px" y="0px"
	 viewBox="0 0 64 64" enable-background="new 0 0 64 64" xml:space="preserve">
<path d="M64,38.5c0-1.6-0.5-3.2-1.5-4.5c1.3-1.7,1.8-3.8,1.4-5.9C63.2,24.6,60,22,56.3,22h-14c0.3-2,0.7-4.6,0.7-7.1
	c0-6.1-1.9-10.2-6-12.7c-4.1-2.5-8.8-0.2-9-0.1l-1.2,0.6L28,14.5L20,29.6c-0.6-0.3-1.3-0.6-2-0.6H4c-2.2,0-4,1.8-4,4v26
	c0,2.2,1.8,4,4,4h14c1.5,0,2.9-0.9,3.5-2.2c1.3,0.8,2.9,1.2,4.5,1.2h24.3c3.9,0,7.1-2.8,7.6-6.5c0.1-0.8,0.1-1.6,0-2.4
	c2.5-1.3,4.1-3.8,4.1-6.7c0-0.9-0.1-1.7-0.4-2.5C63.1,42.6,64,40.6,64,38.5z M18,59H4V33h14L18,59z M58.1,41.6l-2,1l1.3,1.9
	c0.4,0.6,0.6,1.3,0.6,2c0,1.7-1.3,3.2-3,3.5l-2.8,0.4l1.3,2.5c0.3,0.7,0.5,1.4,0.4,2.1c-0.2,1.7-1.8,3-3.7,3H26c-1.9,0-4-1.1-4-3
	V34.4l9.6-18.3c0.3-0.5,0.4-1.1,0.3-1.7l-0.8-9.2c1-0.3,2.6-0.4,3.8,0.3c2.8,1.7,4,4.7,4,9.3c0,2.4-0.4,4.9-0.7,6.8
	c-0.1,0.9-0.2,1.6-0.3,2.1L37.8,26h18.5c1.8,0,3.3,1.2,3.6,2.8c0.3,1.4-0.3,2.7-1.4,3.5L56.2,34l2.3,1.6c0.9,0.7,1.5,1.7,1.5,2.9
	C60,39.8,59.3,41,58.1,41.6z"/>
</svg>
